<?xml version="1.0" encoding="utf-8"?>
<!-- Generator: Adobe Illustrator 19.0.0, SVG Export Plug-In . SVG Version: 6.00 Build 0)  -->
<svg version="1.1" id="Calque_1" xmlns="http://www.w3.org/2000/svg" xmlns:xlink="http://www.w3.org/1999/xlink" x="0px" y="0px"
	 viewBox="0 0 48.6 51.1" style="enable-background:new 0 0 48.6 51.1;" xml:space="preserve">
<g id="XMLID_23_">
	<path id="XMLID_62_" d="M9,10.2l12.9,3.9l0.6-2.1L8.8,7.8l-6.1,3.5l1.1,1.9L9,10.2z"/>
	<path id="XMLID_60_" d="M9,14.1L21.9,18l0.6-2.1L8.8,11.7l-6.1,3.5l1.1,1.9L9,14.1z"/>
	<path id="XMLID_58_" d="M9,18l12.9,3.9l0.6-2.1L8.8,15.6l-6.1,3.5l1.1,1.9L9,18z"/>
	<path id="XMLID_56_" d="M9,21.9l12.9,3.9l0.6-2.1L8.8,19.5l-6.1,3.5L3.8,25L9,21.9z"/>
	<path id="XMLID_54_" d="M9,25.8l12.9,3.9l0.6-2.1L8.8,23.4L2.6,27l1.1,1.9L9,25.8z"/>
	<path id="XMLID_52_" d="M9,29.7l12.9,3.9l0.6-2.1L8.8,27.3l-6.1,3.5l1.1,1.9L9,29.7z"/>
	<path id="XMLID_50_" d="M9,33.6l12.9,3.9l0.6-2.1L8.8,31.2l-6.1,3.5l1.1,1.9L9,33.6z"/>
	<path id="XMLID_48_" d="M9,37.5l12.9,3.9l0.6-2.1L8.8,35.1l-6.1,3.5l1.1,1.9L9,37.5z"/>
	<path id="XMLID_46_" d="M30.1,10.2l12.9,3.9l0.6-2.1L29.8,7.8l-6.1,3.5l1.1,1.9L30.1,10.2z"/>
	<path id="XMLID_44_" d="M30.1,6.3l12.9,3.9l0.6-2.1L29.8,3.9l-6.1,3.5l1.1,1.9L30.1,6.3z"/>
	<path id="XMLID_42_" d="M30.1,2.4l12.9,3.9l0.6-2.1L29.8,0l-6.1,3.5l1.1,1.9L30.1,2.4z"/>
	<path id="XMLID_40_" d="M30.1,14.1L42.9,18l0.6-2.1l-13.8-4.2l-6.1,3.5l1.1,1.9L30.1,14.1z"/>
	<path id="XMLID_38_" d="M30.1,18l12.9,3.9l0.6-2.1l-13.8-4.2l-6.1,3.5l1.1,1.9L30.1,18z"/>
	<path id="XMLID_36_" d="M30.1,21.9l12.9,3.9l0.6-2.1l-13.8-4.2l-6.1,3.5l1.1,1.9L30.1,21.9z"/>
	<path id="XMLID_34_" d="M30.1,25.8l12.9,3.9l0.6-2.1l-13.8-4.2L23.7,27l1.1,1.9L30.1,25.8z"/>
	<path id="XMLID_32_" d="M30.1,29.7l12.9,3.9l0.6-2.1l-13.8-4.2l-6.1,3.5l1.1,1.9L30.1,29.7z"/>
	<path id="XMLID_30_" d="M30.1,33.6l12.9,3.9l0.6-2.1l-13.8-4.2l-6.1,3.5l1.1,1.9L30.1,33.6z"/>
	<path id="XMLID_28_" d="M30.1,37.5l12.9,3.9l0.6-2.1l-13.8-4.2l-6.1,3.5l1.1,1.9L30.1,37.5z"/>
	<path id="XMLID_24_" d="M42.9,48.9v-3.7l0.6-2L29.8,39l-6.1,3.5l0.6,1.1v5.3h-2.3v-3.7l0.6-2L8.8,39l-6.1,3.5l0.6,1.1v5.3H0v2.1
		h48.6v-2.1H42.9L42.9,48.9z M11.9,48.9v-4.5l6.8,1.6v2.9H11.9z M33,48.9v-4.5l6.8,1.6v2.9H33z"/>
</g>
</svg>
